<?xml version="1.0" encoding="utf-8"?>
<!-- Generator: Adobe Illustrator 19.0.0, SVG Export Plug-In . SVG Version: 6.00 Build 0)  -->
<svg version="1.1" id="Layer_1" xmlns="http://www.w3.org/2000/svg" xmlns:xlink="http://www.w3.org/1999/xlink" x="0px" y="0px"
	 viewBox="0 0 612 792" style="enable-background:new 0 0 612 792;" xml:space="preserve">
<style type="text/css">
	.st0{fill:#FFFFFF;}
</style>
<path id="XMLID_12_" d="M495.1,300.8h-28v-3.5c0-7.2-5.8-13-13-13h-29.3c-7.2,0-13,5.8-13,13v4.3l-59.4-0.8
	c0-16.9-13.7-30.5-30.5-30.5h0c-21.3,0-38.5,17.2-38.5,38.5v12l-0.1,0l-5,1l-5.3,0.1l-6.8,1.1l-7.4,1l-14.5,2.5l-7.8,1.5l-0.4-1.5
	L264,290l6.5-10.1l15.7-19.6l12.3-15.8l6.5-13.8l2.7-5.5l2.5-5.7l4.6-11.3l1.1-3.3c0,0,1.2-5.6,1-5.3c2.3-14-9.4-18.8-9.4-18.8
	l-2.3-0.8c0,0-6-1-6-0.7c-4.8,3.2-8.9,18.5-10.1,23.4c-0.3,1.1-0.7,2.1-1.1,3.1l-1.4,2.9l-2,3.8l-1.9,2.7l-3.3,4.6L268.9,232l-2,2
	l-15.7,16.4l-4.9,4.9l-4.8,4.6l-2.6,2.5l-2.2,1.9l-15,15.3l-3.3,3.4l-9.9,11c-0.6,0.6-1.5,0.8-2.3,0.4c-1.2-0.7-2-2-1.8-3.4l0.1-0.8
	c0.3-3.9,0.8-7.7,1.6-11.5l0.6-3l1.8-11l6.4-30.8l4.6-24.3l1.2-8.2c0.2-1.6,0.3-3.3,0.1-4.9l0-0.4c-0.2-2.5-0.7-4.9-1.5-7.2l-0.7-2
	l-1.2-2.5l-0.4-0.7c-0.4-0.6-0.9-1.2-1.5-1.7l-0.9-0.7c-0.8-0.7-1.8-1.3-2.8-1.6l-0.7-0.2c-0.5-0.2-1-0.2-1.5-0.2
	c-1.5,0-4.5,0-4.9,0c-0.6,0-5.6,1.2-5.6,1.2c-1.4,1.3-1.9,3.8-1.9,3.8s-1.9,9.7-2.5,11.9l-0.1,0.5c0,0-6.5,36.5-7.1,37.9l-4.2,12.1
	l-4.2,12l-1.7,5.1l-1.5,5.4c0,0-1.8,5.7-3,8.5l-3.5,9l-3.1,10.5l-2.2,7.2c0,0-0.5-1.1-0.5-1.6l0.1-6.2l0.3-5.1l0.7-10.9v-12.4
	c0-0.8-0.1-1.7-0.4-2.5l-0.5-1.7c-0.1-0.2-0.2-0.4-0.3-0.6l-0.9-1.5c-0.1-0.2-0.3-0.4-0.4-0.5l-1.7-1.6c-0.1-0.1-0.1-0.1-0.2-0.2
	l-2.2-1.6c-0.2-0.2-0.5-0.3-0.7-0.4l-1.9-0.7l-1-0.3c-0.7-0.2-1.1-0.4-1.9-0.3l-0.9,0c-0.1,0-0.2,0-0.3,0l-1.2,0.1
	c-0.3,0-0.7,0.1-1,0.1l-1.4,0.3c-0.6,0.1-1.1,0.4-1.6,0.8l-0.7,0.5l0,0c-0.7,1-1.1,2.1-1.1,3.3v17c0,0.4-0.1,0.9-0.2,1.3l-1.7,5.7
	c-0.1,0.4-0.2,0.8-0.3,1.2l-1.1,6c0,0.2-0.1,0.4-0.1,0.9v2.8c0,1-0.1,2-0.2,3l-1,8.3l-2,13.3l-0.3,4c-0.2,3,0.1,6,0.9,8.9l0.7,2.6
	c0.5,1.7,0.7,3.4,0.7,5.1l0.2,10.7l0.8,20.6c0.2,4.3-0.5,8.5-1.8,12.5l-5.7,16.8l-8.4,16.4l-6.1,13.7c-1.7,3.8-2.7,7.3-3.5,11
	c-2.8,13.5-0.6,27.8,6.6,39.6c16.2,26.5,48.6,47.5,86.3,31.4c22.4-9.5,37.6-16,47.4-20.1c11.2-4.7,19.7-8.9,22.5-10.3
	c1.3-0.7,3.6-1.5,5.4-2.4v8.9c0,12,9.7,21.7,21.7,21.7h190c9.6,0,17.3-7.8,17.3-17.3V318.1C512.4,308.6,504.7,300.8,495.1,300.8z"/>
<rect id="XMLID_20_" x="410.7" y="346.6" class="st0" width="66.4" height="24.3"/>
<g id="XMLID_7_">
	<path id="XMLID_14_" class="st0" d="M278.6,380.4h14.5l-19.7-35.2c-18.8,4.1-34.1,17.6-40.8,35.2h41.9H278.6z"/>
	<path id="XMLID_21_" class="st0" d="M263.1,400.2l9.5-16.7h-41.2c-1.7,5.4-2.6,11.2-2.6,17.2c0,13.7,4.9,26.3,12.9,36.1l21.6-36.3
		L263.1,400.2z"/>
	<path id="XMLID_22_" class="st0" d="M293.2,420.1h-15.4l20.2,36.1c19.1-4.2,34.5-18,41.1-36.1h-42.2H293.2z"/>
	<path id="XMLID_23_" class="st0" d="M271.4,414.8l-6.3-11.1l-21.2,35.6c10.4,11.2,25.2,18.3,41.7,18.3c3.1,0,6.2-0.3,9.1-0.7
		l-23.5-42L271.4,414.8z"/>
	<path id="XMLID_8_" class="st0" d="M296.9,380.4l6,10.6c0.3,0.5,0.6,1,0.8,1.5l1.5,2.7c0.2,0.3,0.4,0.5,0.6,0.8
		c0.4,0.4,0.6,0.8,0.9,1.2l21-34.6c-10.4-11.5-25.4-18.7-42.2-18.7c-3.1,0-6.1,0.3-9,0.7l20,35.8H296.9z"/>
	<path id="XMLID_25_" class="st0" d="M329.9,365.1l-25.7,42.4l-0.1-0.1l-5.4,9.6h41.5c1.5-5.1,2.4-10.6,2.4-16.2
		C342.5,387.2,337.8,374.8,329.9,365.1z"/>
</g>
<g id="XMLID_9_">
	<g id="XMLID_5_">
		<path id="XMLID_75_" class="st0" d="M294.8,554.6c-0.1,0.2-0.4,0.3-0.7,0.5c-1.1,0.5-2.7,0.5-5,0c-1.2-0.3-2.1-0.6-2.9-1
			c-0.5-0.3-0.9-0.6-1.2-1.1c-0.3-0.4-2.5-3.1-6.6-7.9c-1.5,1.2-3,2.2-4.7,2.9c-1.7,0.7-2.9,0.9-3.5,0.7c-0.3-0.2-0.5-0.4-0.5-0.8
			c0.1-0.2,0.1-0.3,0.2-0.5c1.5,0.1,3-1,4.5-3.4c0.4-0.6,0.7-1.2,1.1-1.8c0.1-0.1,0.1-0.2,0.2-0.3c-0.7-0.9-1.1-1.3-1.8-2.1
			c-7.3-8.5-11-12.6-18.6-20.8c-1.1,4.7,1.3,8.8,6.8,12.5c0.4,0.2,0.5,0.3,0.9,0.4c0.5,0.2,1.1,0.4,1.6,0.4c0.1,0,0.3,0,0.4,0
			c0.1,0,0.3,0,0.5,0c0.2,0,0.3,0,0.4,0.1c0.3,0.1,0.3,0.3,0.1,0.6c-0.1,0.2-0.4,0.4-0.8,0.6c-1.3,0.5-2.6,0.7-3.9,0.8
			c-2.3,0.3-4.4,0.2-6.3-0.6c-1.6-0.6-3-1.5-4.1-2.6c-3.8-4-4.6-9.5-1.8-16.3c0.3-0.5,0.4-0.8,0.7-1.3c0.6-1.1,1.3-2.1,2-3.1
			c4.7-6.3,11.6-10,19.9-10.6c4.8-0.4,8.2,0,10.3,1.2c2.6,1.4,4.6,4,6.2,7.4c1.9,4,2.5,8.5,1.9,13.5c-0.7,5.5-3,11-6.7,16.6
			c0.1,0.1,0.1,0.2,0.2,0.3c1.5,1.9,2.8,3.5,3.8,4.7c1.6,2,2.3,3,3.9,5c1.1,1.4,1.9,2.5,2.5,3.4c0.6,0.8,1,1.4,1.1,1.6
			c0,0.1,0,0.1,0.1,0.2C295.1,553.9,295.1,554.2,294.8,554.6z M279.5,533.8c0.6-2.3,1.1-5.1,1.4-8.6c0.5-10.5-2.1-17.7-9.1-21.3
			c-2.1-1-4.6-0.7-7.5,0.8c-1.9,1-3.9,2.6-5.8,5.1c-1,1.5-1.8,3-2.6,4.7c3.4-0.9,5.6-1,6.8-0.5c0.1,0,3.3,3.6,9.4,10.8
			C275.2,528.4,276.6,530.2,279.5,533.8z"/>
		<path id="XMLID_73_" class="st0" d="M325.9,519.1c-0.5,0.4-1.4,0.5-2.7,0.4c-1.1-0.1-2.3-0.4-3.4-0.9c-1-0.4-1.9-0.8-2.7-1.4
			c-0.5-0.4-0.9-0.8-1.2-1.3c-2.3-4.2-3.4-6.2-5.8-10.4c0,0,0,0,0-0.1c-0.6-1.1-0.9-1.6-1.6-2.7c0-0.2-0.3-0.4-0.8-0.8
			c-0.2-0.1-0.3-0.2-0.6-0.3c-0.3,0.7-0.3,2.4,0,5.1c0.5,5,1,10.7,2.5,14.4c1.1,2.7,3,5.1,3.8,6.7c0,0,0,0,0,0
			c0.5,0.9,0.8,1.5,0.9,1.7c0.1,0.1,0.2,0.3,0.1,0.6c0,0,0,0,0,0c-0.1,0.2-0.1,0.3-0.2,0.4c-0.4,0.5-1.3,0.6-2.6,0.6
			c-1.1-0.1-2.2-0.3-3.4-0.7c-1-0.3-1.9-0.7-2.6-1.2c-0.5-0.4-1-0.8-1.3-1.3c-0.2-0.3-1.1-1.7-2.6-4.1c-5.8-8.9-9.5-14.2-10.6-16
			c-0.6-0.9-0.9-1.3-1.5-2.1c-5.3-7.8-8-11.6-13.6-19.3c-0.6-0.8-0.6-1.5,0-2.1c0.7-0.7,2-1.2,4-1.3c2.7-0.2,4.4,0,5.2,0.5
			c0.1,0,0.1,0.1,0.2,0.1c4.8,6.8,9.2,13.4,13.2,19.7c0.3,0.4,0.4,0.5,0.6,0.9c0,0,0,0,0,0c0.3,0.3,0.4,0.5,0.7,0.8
			c0,0,0.1,0,0.1-0.1c0.1-0.1,0.2-1.1,0.2-2.9c-0.5-4.6-0.2-7.5,1-8.5c0.6-0.5,1.4-1,2.6-1.4c2.4-0.9,4.6-1.4,6.7-1.3
			c1,0,1.6,0.1,2,0.4c0.1,0.1,0.1,0.1,0.2,0.2c0,0.1,0.1,0.1,0.1,0.2c0.2,0.2,0.4,0.5,0.6,1c2.6,5,3.9,7.6,6.5,12.7
			c2.5,5.1,3.8,7.7,6.2,12.8c0,0.1,0,0.1,0,0.2c0,0.1,0,0.2,0,0.3c0,0.1,0,0.1,0,0.2C326.1,518.8,326,519,325.9,519.1z"/>
		<path id="XMLID_70_" class="st0" d="M338.8,508.3c-1.2,0.9-3.1,1.4-5.6,1.5c-2.8,0.1-5-0.4-6.5-1.7c-2.9-2.5-5.4-5.9-7.3-10.3
			c-1.7-3.9-2.7-7.8-2.9-11.6c-0.2-3.7,0.5-6.2,1.9-7.3c1-0.7,2.1-1.3,3.3-1.7c1.1-1.3,2.2-2.4,3.3-3.2c1.1-0.8,2.6-1.3,4.4-1.4
			c1.8-0.1,3.3,0.4,4.5,1.5c3.8,3.4,6,9.4,7,17.9c0.5,4.3,0.4,8.2-0.3,11.9C340.2,506.2,339.6,507.7,338.8,508.3z M335.5,505.6
			c0.2-0.2,0.3-1.1,0.3-2.8c-0.2-4.4-0.9-9.6-2.2-15.6c-1.1-5-2.4-8.1-3.8-9.4c-0.5-0.5-1.1-0.7-1.7-0.6c-0.1,0-0.1,0.1-0.2,0.1
			c0.1,0.1,0.5,0.2,1.2,0.4c0.1,0,0.1,0,0.2,0.1c0.5,0.4,0.6,1,0.4,1.6c-0.3-0.1-0.5-0.2-0.7-0.2c-0.2-0.1-0.5-0.1-0.8,0
			c-0.3,0-0.6,0.2-1.1,0.5c-0.5,0.4-0.8,1.2-0.8,2.4c0,2.3,0.7,5.5,2.1,9.7c1.5,4.5,3.2,8.3,5.1,11.5c0.5,0.8,1,1.5,1.5,1.9
			C335.3,505.6,335.5,505.7,335.5,505.6z"/>
		<path id="XMLID_68_" class="st0" d="M354.6,497c-0.5,0.3-1.3,0.4-2.5,0.1c-0.1,0-0.2,0-0.4-0.1c-2.4-0.5-4.4-1.5-5.9-3
			c-0.5-0.5-0.9-1-1.1-1.5c-4.2-9-8-19.8-12.2-29.6c-1.1,0.7-1.6,1-2.7,1.6c-3.7,2.5-6,4.3-6.9,5.2c-0.7,0.7-0.9,1.2-0.5,1.5
			c0.1,0.1,0,0.1-0.1,0.2c-0.3,0.3-0.7,0.2-1.2-0.1c-0.5-0.4-1-1.2-1.3-2.3c-0.3-1.3-0.3-2.4,0.2-3.2c0.5-0.9,3.8-3.6,10.2-7.7
			c-2.1-4.7-3.1-7-5.3-11.6c-0.4-0.9-0.2-1.6,0.5-2.1c1-0.6,2.9-0.8,5.7-0.3c2.1,0.4,3.5,0.8,4.1,1.3c0.2,0.3,1.3,2.8,3.3,7.6
			c2.3-1.4,3.4-2.1,5.8-3.4c3.5-2,5.4-3.2,5.6-3.8c0.1-0.3,0-0.5-0.2-0.7c-0.1-0.1-0.1-0.1,0-0.1c0.8-0.4,1.4-0.4,1.9,0.1
			c0.5,0.5,0.8,1.2,0.8,2c0.1,1.3,0,2.5-0.5,3.6c-0.4,0.8-1.2,1.7-2.6,2.5c-0.4,0.2-1.2,0.6-2.5,1.3c-1.3,0.7-2.5,1.3-3.8,2.1
			c-1.3,0.7-2.1,1.2-2.5,1.4c4.6,11,8.7,22.1,12.7,33.3c0.9,2.6,1.5,4.3,1.5,4.7c0,0,0,0.1,0,0.3c0,0.1,0,0.3-0.1,0.4
			C354.9,496.8,354.8,496.9,354.6,497z"/>
		<path id="XMLID_65_" class="st0" d="M369.4,488.4c-1.4,0.8-3.5,1-6.1,0.7c-3-0.3-5.2-1.1-6.6-2.6c-2.6-2.8-4.7-6.6-6-11.1
			c-1.2-4.1-1.6-8.1-1.2-11.8c0.4-3.7,1.4-6.1,3.1-7c1.1-0.6,2.3-1,3.7-1.3c1.3-1.2,2.6-2.1,3.9-2.7c1.3-0.7,2.9-0.9,4.8-0.8
			s3.4,0.8,4.5,2c3.5,3.9,4.9,10.1,4.6,18.6c-0.1,4.3-0.9,8.2-2.2,11.7C371.2,486.5,370.3,487.8,369.4,488.4z M366.4,485.3
			c0.2-0.1,0.5-1,0.7-2.7c0.5-4.3,0.5-9.6,0.1-15.7c-0.4-5.1-1.2-8.3-2.6-9.8c-0.5-0.5-1-0.8-1.7-0.9c-0.1,0-0.1,0-0.2,0.1
			c0.1,0.1,0.5,0.3,1.2,0.6c0.1,0,0.1,0.1,0.2,0.1c0.4,0.5,0.5,1,0.1,1.7c-0.2-0.1-0.5-0.2-0.7-0.3c-0.2-0.1-0.5-0.1-0.8-0.1
			c-0.3,0-0.7,0.1-1.2,0.4c-0.6,0.3-1,1.1-1.2,2.3c-0.3,2.2-0.1,5.6,0.7,9.8c0.9,4.6,2.1,8.6,3.5,12c0.4,0.9,0.8,1.6,1.3,2.1
			C366.1,485.2,366.3,485.3,366.4,485.3z"/>
		<path id="XMLID_63_" class="st0" d="M398.4,475.5c-0.2,0.1-1,0.3-2.5,0.9c-1.5,0.5-3.8,0.5-7.1,0.2c-3.3-0.4-6.5-1.5-9.7-3.6
			c-0.4-0.2-0.7-0.5-0.9-0.8c-1-1.2-1.4-2.6-1.2-4.3c0.1-1.3,0.4-2.1,1-2.3c0.3-0.1,0.6,0,0.9,0.2c3.1,2.7,7.2,4,12.1,3.9
			c1.3,0,2.2-0.1,2.6-0.3c0.3-0.1,0.4-0.3,0.2-0.5c-0.4-0.6-2.5-2.3-6.3-5c-3.1-2.1-4.6-3.2-7.8-5.2c-1.2-0.9-1.9-1.3-3.1-2.1
			c-1.3-0.9-2.3-1.7-3.1-2.6c-0.6-0.7-1-1.4-1.1-2c-0.3-2.5,0.8-4.8,2.8-6.1c0.7-0.5,1.5-0.9,2.3-1.2c1.5-0.6,3.5-1.1,5.8-1.3
			c2.3-0.2,4.7-0.2,7,0c2.3,0.2,3.7,0.4,4.2,0.6c2.7,0.8,4.7,2,5.9,3.6c0.5,0.7,0.8,1.5,0.9,2.3c0.1,1.1-0.1,1.9-1,2.1
			c-0.4,0.1-0.9,0-1.5-0.4c-1.9-1.3-4-2-6.2-2.1c-2.7-0.1-5,0.2-6.8,1c-1,0.4-1.4,0.8-1.1,1.1c0.5,0.6,2.1,1.7,4.7,3.3
			c2.4,1.5,4.8,3.3,7.4,5.3c2.8,2.2,4.9,4.4,6.3,6.3c1.3,2,1.6,3.8,0.8,5.2C402.8,473.3,400.9,474.6,398.4,475.5z"/>
		<path id="XMLID_61_" class="st0" d="M417.6,495.9c-0.2,0.1-0.6,0.1-1,0c-0.7-0.1-1.4-0.4-2-0.9c-2.1-1.2-3.6-2.6-4.6-4.3
			c-0.3-0.6-0.5-1.1-0.7-1.7c-0.4-2.8-1.3-11-3.3-24.5c0-0.2,0-0.2,0-0.4c-0.6-4.1-1-6.3-1-6.4c0-0.1-1.1-7.9-3.7-23.2
			c-0.2-1,0.2-1.6,0.9-1.9c0.1,0,0.4-0.1,1-0.1c0.5-0.1,1.5,0.1,2.9,0.6s2.7,1,3.7,1.7c0.9,0.5,1.4,1,1.7,1.3
			c0.1,0.1,0.2,0.5,0.3,1.2c0,0,0,0,0,0.1c0.3-3,2.1-4.9,5.5-5.8c0.4-0.1,1-0.2,1.9-0.3c1.6-0.2,3.4,0.1,5.6,1.1
			c0.7,0.2,1.8,0.9,3.3,2.1c1,0.8,1.9,1.8,2.6,3.1c0.8,1.4,1.2,3.2,1.5,4.9c0.4,2.6-1.4,10.4-0.5,11.9c0.4,0.6,2.8,1.3,3.2,1.9
			c0.1,0.1,0.1,0.3,0.1,0.5c0,0.2,0,0.4,0,0.7c-0.1,0.2-0.2,0.4-0.3,0.6c0,0,0,0-0.1,0c0,0,0,0,0,0.1c-0.9-0.9-2.1-1.1-3.6-0.8
			c-0.3,1.3-0.7,2.5-1.2,3.6c-0.5,1.1-0.8,1.8-1,2.1c-0.3,0.5-0.5,0.8-0.5,0.9c0,0-0.2,0.3-0.6,0.9c-0.8,1.3-1.5,2-2.2,2.2
			c-1.1,0.3-2.7,0-4.9-0.9c-2.1-0.9-3.5-1.9-4.3-3.1c-0.5-0.8-0.4-2,0.3-3.6c0.2-0.3,0.3-0.4,0.4-0.7c0.2-0.4,0.5-0.8,0.8-1.2
			c0.9-1.2,1.9-2.3,3.1-3.1c0.5-0.4,1-0.6,1.1-0.8c1.1-1.5,0.6-7.5,0.5-11.1c0-1.6-0.3-2.7-0.8-3.5c-0.2-0.4-0.6-0.5-1-0.4
			c-0.6,0.2-1.4,1.8-2.3,4.7c-1.1,3.4-2,6.8-2.6,9.9c-0.5,3.1-0.7,5-0.7,5.6c0.2,4,0.3,6.1,0.3,6.3c0.1,0.3,0.1,0.5,0.1,0.8
			c0,0.1,0,0.2,0,0.3c0.1,1,0.1,2,0.2,3c0,1,0.5,6.2,1.4,15.5c0.6,6.7,0.9,10.3,0.8,10.6c-0.1,0.1-0.1,0.1-0.1,0.2
			C417.9,495.8,417.8,495.9,417.6,495.9z"/>
		<path id="XMLID_58_" class="st0" d="M444.3,421.7c0.1,0.4,0.2,1,0.3,1.8c0.1,0.8,0,1.6-0.2,2.4c-0.2,0.5-0.5,0.8-0.9,0.9
			c-0.6,0.1-1.3,0-2.1-0.1c-0.8-0.1-1.7-0.4-2.5-0.9c-0.9-0.4-1.8-1.1-2.8-1.9c-0.8-0.7-1.5-1.5-2.2-2.5c-0.3-0.5-0.5-1-0.5-1.7
			c0-0.7,0-1.3,0.2-1.9c0.1-0.6,0.2-1,0.3-1c0.1-0.1,0.4-0.1,0.5-0.2c0,0,0.1-0.1,0.1-0.1c1-0.1,2.3,0.1,3.8,0.7
			c1.5,0.6,2.8,1.3,4,2.2c1.2,0.8,1.8,1.4,1.9,1.9C444.1,421.5,444.2,421.6,444.3,421.7z M446.6,461.9c0-0.1,0-0.1,0-0.2
			c0.1-0.3,0.2-2.4,0.1-6.3c-0.1-2.5-0.1-5.5-0.2-8.7c-0.2-8.7-0.6-13.2-0.8-13.5c-0.2-0.4-0.8-0.8-1.6-1.5c-1-0.7-2.2-1.5-3.6-2.1
			c-1.4-0.6-2.3-0.9-2.9-0.9c-0.6,0-0.9,0-1,0.1c-0.8,0.1-1.2,0.7-1.2,1.7c0.5,6.9,0.8,11.6,0.9,14.2c0.3,5.9,0.4,9.2,0.5,10.1
			c0.1,0.6,0.3,1.2,0.6,1.8c0.5,0.8,1.1,1.7,2,2.5c2,1.9,3.7,3,5.3,3.4c0.5,0.1,0.8,0.1,1.1,0.1
			C446.1,462.4,446.4,462.2,446.6,461.9z"/>
		<path id="XMLID_56_" class="st0" d="M466.5,460.2c-3,0.2-6-0.5-9-2.2c-2.8-1.6-4.7-3.4-5.7-5.5c-1.4-2.9-2-6.7-1.6-11.3
			c0.4-4.1,1.4-7.9,3.1-11.2c1.7-3.3,3.6-5,5.6-5.2c1.1-0.1,2.9,0.1,5.2,0.7c2.4,0.6,4.4,1.3,6,2c2,0.9,3.2,1.7,3.5,2.4
			c0.3,0.6-0.1,2.8-1.3,6.6c-0.3,1-0.5,2-0.7,3c0,0.2-0.7,0.4-1.8,0.5c-0.6,0-1.3,0-2.1,0c-0.8,0-1.6-0.1-2.3-0.2
			c-0.7-0.1-1.1-0.2-1.1-0.3c0,0,0,0,0-0.1c-0.2-1-0.1-2.1,0.1-3.4c0.3-1.6,0.3-2.6,0-3.1c-0.1-0.1-0.1-0.2-0.2-0.2
			c-0.5,0-1,2-2.1,5.2c-0.3,1.1-0.7,2.3-1,3.6c-0.3,1.8-0.5,3.3-0.5,4.3c-0.1,1.9,0.3,4.1,1.4,6.5c1.2,2.6,2.7,3.9,4.6,3.7
			c1.3-0.1,2.7-0.9,4.2-2.4c3.5-3.7,5.8-7.4,6.6-11.2c0.8,0.3,1.3,0.9,1.7,1.7c0.3,0.8,0.4,1.6,0.1,2.6c-0.7,3.1-2.4,5.9-4.7,8.5
			C471.7,458.4,469.1,460,466.5,460.2z"/>
		<path id="XMLID_53_" class="st0" d="M506.8,459.7c-2.6-0.2-4.8-0.6-6.6-1.3c-1.8-0.7-3.3-1.7-4.7-3c-1.3-1.3-2.5-3-3.6-5
			c-1.1-2-2.1-4.5-3.3-7.3c-0.6,1.3-1.2,2.6-1.7,3.7c-0.2,2.2-0.4,3.2-0.6,5.4c-0.4,3.6-0.6,5.6-0.7,6c-0.1,0.4-0.5,0.6-1.1,0.6
			c-0.5,0-1.3-0.3-2.5-1c-1.2-0.7-2.4-1.8-3.7-3.4c-0.8-1-1.4-1.9-1.7-2.7c-0.3-0.6-0.4-1.3-0.5-1.9c0-0.4,0.1-2,0.3-4.8
			c0.2-2.8,0.4-6.3,0.7-10.6c0-1.2,0.1-2.5,0.2-3.8c0-0.2,0-0.2,0-0.4c0.5-10,0.9-20,1-30c0-1,0.6-1.5,1.6-1.6
			c1.1,0,2.7,0.6,4.8,1.8c1.2,0.8,2.3,1.6,3.3,2.4c0.7,0.5,1.2,1,1.4,1.3c0.1,0.2,0.2,0.2,0.3,0.4c0,0.1,0,0.1-0.1,0.2
			c0,0.1,0.1,0.1,0.1,0.2c0,0-0.1,0-0.1,0c0.4,1.4,0.3,5.7-0.4,12.9c-0.2,4.2-0.3,6.3-0.5,10.5c0.1-0.3,0.2-0.4,0.3-0.7
			c1.5-3.1,3.7-5,6.7-5.8c0.7-0.1,1.4-0.2,2.3-0.2c1.7,0.1,3.7,0.5,6,1.3c0.2,0.1,0.4,0.1,0.6,0.2c1.2,0.4,2.3,0.9,3.5,1.6
			c1.2,0.7,1.9,1.6,2.4,2.7c0.7,2-0.1,4.4-2.4,7.1c-1.7,2-3.8,3.6-5.9,5c-2.5,1.5-4.5,2.3-6,2.3c1.3,3.5,3.5,6.8,6.5,9.9
			c2.7,3,4.9,4.6,6.7,4.8c0.6,0.1,1,0,1.2,0c0.2-0.1,0.2-0.2,0.3-0.2c0,0.1,0.1,0.1,0.1,0.1c0.1,0.1,0.2,0.2,0.2,0.5
			c0.2,0.6-0.2,1.2-1.1,1.9C509,459.5,508,459.8,506.8,459.7z M489.4,441.5c2.9-0.7,5.9-3.4,8.9-8.2c0.3-0.4,0.4-0.6,0.7-1.1
			c1.7-1.9,2.4-3.3,2-4c-0.1-0.3-0.4-0.5-0.9-0.7c-0.1,0-0.3,0.1-0.7,0.3c-0.8,0.4-1.7,1.1-2.9,2.1c-0.9,0.7-1.9,2.1-3,4.1
			C491.8,436.9,490.4,439.4,489.4,441.5z"/>
		<path id="XMLID_50_" class="st0" d="M539.1,464.3c-0.9-0.2-2.2-1.1-3.9-2.8c-2.5-2.4-3.9-4.1-4.1-5.2c0-0.1,0-0.1,0-0.2
			c0.7-1.5,1.1-2.5,1.1-3.1c-0.7,0.7-1.9,1.8-3.7,3c-1.8,1.3-3.6,2.4-5.4,3.4c-1.9,1-3.3,1.4-4.3,1.3c-0.4,0-0.8-0.3-1.2-0.5
			c-1.4-0.8-2.9-1.4-3.7-1.9c-2.8-1.7-4.4-3-4.8-4c-0.1-0.2,0-1.4,0.4-3.1c0.2-0.8,0.4-1.7,0.6-2.8c0.2-1.1,0.5-2.2,0.8-3.3
			c-0.1-0.2,0.2-1.8,0.9-4.6c0,0,0-0.1,0-0.1c0.2-0.8,0.3-1.2,0.5-2c0.7-3.8,1-5.7,1.7-9.5c0-0.5-0.1-0.9-0.1-1.1
			c0-0.2,0-0.3,0.1-0.5c0.1-1.2,0.6-1.7,1.5-1.6c1,0.1,2.4,0.8,4,2.1c2.9,2.4,4.6,4.3,5,5.5c0,0.1,0,0.1,0.1,0.2
			c-0.1,2.1-0.9,6.5-2.5,13c-0.4,1.9-0.7,3.2-0.8,3.9c0,0.4,0,0.6,0,0.9c0.1,0.2,0.2,0.4,0.4,0.4c1,0.1,2.8-1.2,5.5-4
			c4.1-4.2,7.3-7.9,8.5-10.8c0.1-0.3,0.2-0.6,0.3-0.8c0.1-0.2,0.2-0.4,0.2-0.5c0.1-0.2,0.1-0.4,0.2-0.7c0.4-2,0.7-3,1.1-5
			c0.3-1,0.9-1.4,1.7-1.2c0.1,0,0.5,0.1,1.1,0.3c0.6,0.2,1.6,0.8,2.8,2c1.3,1.1,2.3,2.2,3.1,3.2c0.8,1,1.3,1.8,1.4,2.2
			c0,0.1,0,0.1,0.1,0.2c-1.4,5.5-2.1,8.3-3.7,13.8c-2.3,8.7-3.7,13.1-3.9,13.5C539.9,464.2,539.6,464.4,539.1,464.3z"/>
		<path id="XMLID_48_" class="st0" d="M544.3,492.2c-0.3-0.1-0.7-0.3-1.2-0.6c-0.7-0.5-1.4-1.2-1.9-1.9c-1.8-2.2-2.9-4.4-3.2-6.4
			c-0.1-0.7-0.1-1.3,0-1.9c0.8-2.8,3.2-10.5,6.9-23.6c0.1-0.2,0.1-0.2,0.1-0.4c1.1-4,1.6-6.1,1.7-6.2c0-0.2,2.2-7.6,6-22.6
			c0.3-1,0.9-1.4,1.8-1.2c0.1,0,0.5,0.2,1.1,0.4c0.6,0.2,1.5,0.9,2.8,2.1c1.3,1.2,2.4,2.4,3.2,3.5c0.7,1,1.1,1.7,1.2,2.1
			c0,0.2,0,0.6-0.2,1.3c0,0,0,0,0,0.1c1.5-2.5,4.3-3.2,8.3-2.1c0.4,0.1,1.1,0.4,2.2,0.8c1.8,0.7,3.6,2,5.5,4
			c0.7,0.6,1.6,1.8,2.6,3.7c0.7,1.2,1.3,2.7,1.5,4.2c0.2,1.7,0,3.5-0.5,5.3c-0.7,2.6-5.6,8.8-5.5,10.4c0.1,0.8,2.5,2.8,2.6,3.5
			c0,0.1,0,0.3,0,0.5c0,0.2-0.2,0.4-0.3,0.6c-0.2,0.2-0.4,0.3-0.6,0.4c0,0,0,0-0.1,0c0,0,0,0,0,0.1c-0.6-1.3-1.8-2.2-3.6-2.8
			c-0.9,1-1.8,1.8-2.8,2.5c-1,0.7-1.6,1.2-1.9,1.4c-0.6,0.3-0.9,0.5-0.9,0.5c0,0-0.3,0.2-1,0.5c-1.3,0.7-2.4,0.9-3.3,0.7
			c-1.3-0.4-2.9-1.6-4.9-3.6c-1.9-2-3-3.7-3.3-5.2c-0.2-1,0.4-2,1.8-3c0.3-0.2,0.5-0.2,0.8-0.4c0.4-0.2,0.9-0.4,1.4-0.6
			c1.5-0.6,3-1,4.6-1.1c0.7-0.1,1.4,0,1.5-0.1c1.6-0.7,3.8-6.4,5.2-9.7c0.6-1.4,0.8-2.6,0.6-3.6c-0.1-0.5-0.4-0.8-0.9-0.9
			c-0.8-0.2-2.2,0.9-4.4,3c-2.6,2.5-5,4.9-6.9,7.4c-1.9,2.5-2.9,4-3.1,4.6c-1.5,3.6-2.3,5.6-2.3,5.8c-0.1,0.3-0.1,0.5-0.2,0.8
			c0,0.1-0.1,0.2-0.1,0.3c-0.3,0.9-0.7,1.9-1.1,2.8c-0.4,0.9-2.1,5.9-5,14.7c-2.1,6.4-3.3,9.7-3.6,9.9c-0.1,0-0.1,0-0.2,0.1
			C544.7,492.2,544.5,492.2,544.3,492.2z"/>
	</g>
</g>
</svg>
